<?xml version="1.0" encoding="UTF-8" standalone="no"?><!DOCTYPE svg PUBLIC "-//W3C//DTD SVG 1.1//EN" "http://www.w3.org/Graphics/SVG/1.1/DTD/svg11.dtd"><svg width="100%" height="100%" viewBox="0 0 230 247" version="1.1" xmlns="http://www.w3.org/2000/svg" xmlns:xlink="http://www.w3.org/1999/xlink" xml:space="preserve" xmlns:serif="http://www.serif.com/" style="fill-rule:evenodd;clip-rule:evenodd;stroke-linejoin:round;stroke-miterlimit:2;"><path id="donut" d="M53.816,30.178c-8.969,10.128 -53.816,49.422 -53.816,101.856c0,63.24 51.343,114.583 114.583,114.583c63.241,0 114.584,-51.343 114.584,-114.583c-0,-51.223 -44.847,-91.728 -53.817,-101.856c-8.969,-10.128 -3.285,27.793 0,41.089c4.195,16.976 25.171,37.975 25.171,60.767c-0,47.43 -38.507,80.225 -85.938,80.225c-47.43,-0 -85.937,-32.795 -85.937,-80.225c-0,-22.792 20.975,-43.791 25.17,-60.767c3.286,-13.296 8.97,-51.217 0,-41.089Z" style="fill:#00d1ff;"/><path id="mark" d="M106.241,132.568c-2.166,-10.32 -4.795,-35.886 -6.831,-61.301c-1.937,-24.176 -3.338,-48.217 -3.296,-58.87c0.021,-5.501 6.417,-9.111 10.644,-10.934c4.228,-1.822 10.569,-2.075 14.721,0c4.152,2.076 10.726,5.715 10.19,12.455c-1.751,22.02 -5.952,99.527 -10.19,119.302c-1.246,5.817 -14.023,5.134 -15.238,-0.652Z" style="fill:#00d1ff;"/></svg>