<?xml version="1.0" encoding="utf-8"?>
<!-- Generator: Adobe Illustrator 23.0.3, SVG Export Plug-In . SVG Version: 6.00 Build 0)  -->
<svg version="1.1" id="Layer_1" xmlns="http://www.w3.org/2000/svg" xmlns:xlink="http://www.w3.org/1999/xlink" x="0px" y="0px"
	 viewBox="0 0 768.61 334.94" style="enable-background:new 0 0 768.61 334.94;" xml:space="preserve">
<style type="text/css">
	.st0{fill:#76EE74;}
	.st1{opacity:0.5;fill:url(#SVGID_1_);enable-background:new    ;}
	.st2{fill:url(#SVGID_2_);}
	.st3{fill:url(#SVGID_3_);}
	.st4{fill:url(#SVGID_4_);}
</style>
<g>
	<g>
		<path class="st0" d="M690.42,248.17c-4.54,1.96-9.28,3.57-14.15,4.81c-6.48,1.65-13.26,2.49-20.14,2.49
			c-12.04,0-23.47-2.33-33.99-6.92c-10.63-4.64-20.05-11.02-28-18.98c-7.95-7.95-14.34-17.4-18.97-28.09
			c-4.59-10.59-6.92-22.14-6.92-34.33c0-12.04,2.33-23.47,6.92-33.99c4.63-10.61,11.01-19.99,18.96-27.87
			c7.96-7.9,17.39-14.26,28.02-18.9c10.52-4.59,21.95-6.92,33.99-6.92c12.02,0,23.63,2.43,34.49,7.22
			c10.96,4.84,20.77,11.6,29.15,20.11l7.7,7.82l41.13-68.55l-5.49-4.67c-14.82-12.59-31.57-22.4-49.8-29.14
			c-18.24-6.75-37.48-10.17-57.18-10.17c-15.11,0-29.88,2-43.92,5.93c-13.99,3.93-27.24,9.52-39.39,16.63
			c-12.15,7.11-23.41,15.78-33.47,25.77c-10.08,10.01-18.81,21.29-25.93,33.54c-7.11,12.22-12.7,25.46-16.62,39.36
			c-3.94,13.96-5.93,28.71-5.93,43.83s1.99,29.93,5.93,44.02c3.92,14.04,9.51,27.37,16.62,39.59c7.13,12.25,15.85,23.53,25.93,33.53
			c10.06,9.99,21.31,18.69,33.44,25.86c12.16,7.2,25.42,12.83,39.43,16.76c14.04,3.93,28.82,5.93,43.92,5.93
			c19.7,0,38.94-3.42,57.18-10.17c18.22-6.74,34.98-16.54,49.8-29.14l3-2.55V158.65h-75.68v89.52H690.42z"/>
		<linearGradient id="SVGID_1_" gradientUnits="userSpaceOnUse" x1="490.8699" y1="205.2821" x2="766.1202" y2="205.2821">
			<stop  offset="0" style="stop-color:#000000"/>
			<stop  offset="1" style="stop-color:#76EE74"/>
		</linearGradient>
		<path class="st1" d="M690.42,248.17c-4.54,1.96-9.28,3.57-14.15,4.81c-6.48,1.65-13.26,2.49-20.14,2.49
			c-12.04,0-23.47-2.33-33.99-6.92c-10.63-4.64-20.05-11.02-28-18.98c-7.95-7.95-14.34-17.4-18.97-28.09
			c-4.59-10.59-6.92-22.14-6.92-34.33c0-12.04,2.33-23.47,6.92-33.99c4.63-10.61,11.01-19.99,18.96-27.87
			c7.96-7.9,17.39-14.26,28.02-18.9c10.52-4.59,21.95-6.92,33.99-6.92c12.02,0-165.27-21.67-165.27,87.68
			c0,15.12,1.99,29.93,5.93,44.02c3.92,14.04,9.51,27.37,16.62,39.59c7.13,12.25,15.85,23.53,25.93,33.53
			c10.06,9.99,21.31,18.69,33.44,25.86c12.16,7.2,25.42,12.83,39.43,16.76c14.04,3.93,28.82,5.93,43.92,5.93
			c19.7,0,38.94-3.42,57.18-10.17c18.22-6.74,34.98-16.54,49.8-29.14l3-2.55V158.65h-75.68v89.52H690.42z"/>
	</g>
	<g>
		<polygon class="st0" points="321.69,78.01 459.71,78.01 459.71,0 243.47,0 243.47,334.19 321.63,334.19 321.63,206.23 
			420.22,206.23 420.22,128 321.69,128 		"/>
		<linearGradient id="SVGID_2_" gradientUnits="userSpaceOnUse" x1="282.55" y1="210.2727" x2="282.55" y2="-10.0249">
			<stop  offset="0" style="stop-color:#76EE74"/>
			<stop  offset="1" style="stop-color:#000000"/>
		</linearGradient>
		<path class="st2" d="M281.99,78.01c-21.28,0-38.52,17.25-38.52,38.52v217.66h78.16V78.01H281.99z"/>
		<linearGradient id="SVGID_3_" gradientUnits="userSpaceOnUse" x1="381.5588" y1="167.115" x2="289.4697" y2="167.115">
			<stop  offset="0" style="stop-color:#76EE74"/>
			<stop  offset="1" style="stop-color:#000000"/>
		</linearGradient>
		<rect x="321.63" y="128" class="st3" width="98.59" height="78.23"/>
	</g>
	<g>
		<polygon class="st0" points="78.18,0.08 0,0.08 0,334.94 199.78,334.94 199.78,257.88 78.18,257.88 		"/>
		
			<linearGradient id="SVGID_4_" gradientUnits="userSpaceOnUse" x1="39.1" y1="55.4693" x2="39.1" y2="-164.8284" gradientTransform="matrix(1 0 0 -1 0 181.087)">
			<stop  offset="0" style="stop-color:#76EE74"/>
			<stop  offset="1" style="stop-color:#000000"/>
		</linearGradient>
		<path class="st4" d="M38.54,257.88c-21.28,0-38.52-17.25-38.52-38.52V1.7h78.16v256.18L38.54,257.88L38.54,257.88z"/>
	</g>
</g>
</svg>
