<?xml version="1.0" encoding="UTF-8" standalone="no"?><!DOCTYPE svg PUBLIC "-//W3C//DTD SVG 1.1//EN" "http://www.w3.org/Graphics/SVG/1.1/DTD/svg11.dtd"><svg width="100%" height="100%" viewBox="0 0 2101 1470" version="1.1" xmlns="http://www.w3.org/2000/svg" xmlns:xlink="http://www.w3.org/1999/xlink" xml:space="preserve" xmlns:serif="http://www.serif.com/" style="fill-rule:evenodd;clip-rule:evenodd;stroke-linecap:round;stroke-linejoin:round;stroke-miterlimit:1.5;"><g><path d="M36.614,1467.58l50,-29.166" style="fill:none;stroke:#000;stroke-width:4.17px;"/><path d="M131.044,1410.69l52.807,-23.711" style="fill:none;stroke:#000;stroke-width:10.17px;"/><path d="M238.701,1367.38l54.159,-20.432" style="fill:none;stroke:#000;stroke-width:10.17px;"/><path d="M346.297,1327.66l55.635,-15.983" style="fill:none;stroke:#000;stroke-width:10.17px;"/><path d="M456.182,1298.49l52.531,-24.316" style="fill:none;stroke:#000;stroke-width:10.17px;"/><path d="M560.818,1249.46l51.593,-26.247" style="fill:none;stroke:#000;stroke-width:10.17px;"/><path d="M658.139,1193.8c8.827,-8.827 37.662,-35.705 40.313,-35.705" style="fill:none;stroke:#000;stroke-width:10.17px;"/><path d="M739.915,1114.33c10.366,-8.333 27.175,-41.464 29.947,-41.464" style="fill:none;stroke:#000;stroke-width:10.17px;"/><path d="M809.022,961.142c-0,8.936 -9.214,53.063 -9.214,56.437" style="fill:none;stroke:#000;stroke-width:10.17px;"/><path d="M807.87,849.42c3.125,3.125 5.759,46.891 5.759,59.892" style="fill:none;stroke:#000;stroke-width:10.17px;"/><path d="M774.469,744.608c6.621,6.622 23.035,46.162 23.035,48.375" style="fill:none;stroke:#000;stroke-width:10.17px;"/><path d="M712.273,649.011c10.37,0 33.368,39.16 38.008,39.16" style="fill:none;stroke:#000;stroke-width:10.17px;"/><path d="M631.649,571.842c14.224,5.778 47.16,27.882 47.222,32.25" style="fill:none;stroke:#000;stroke-width:10.17px;"/><path d="M579.819,540.744c-11.909,-11.908 -32.476,-23.035 -52.982,-23.035" style="fill:none;stroke:#000;stroke-width:10.17px;"/><path d="M477.311,498.129c-2.203,-2.204 -41.644,-12.67 -57.589,-12.67" style="fill:none;stroke:#000;stroke-width:10.17px;"/><path d="M366.74,479.7l-61.044,0" style="fill:none;stroke:#000;stroke-width:10.17px;"/><path d="M252.715,479.7c-7.656,0 -57.589,14.89 -57.589,19.58" style="fill:none;stroke:#000;stroke-width:10.17px;"/><path d="M104.136,553.414c-0,-9.202 36.857,-23.452 36.857,-27.643" style="fill:none;stroke:#000;stroke-width:10.17px;"/><path d="M26.967,649.011c0,-10.051 27.643,-44.213 27.643,-47.223" style="fill:none;stroke:#000;stroke-width:10.17px;"/><path d="M5.083,751.519c0,-4.017 3.456,-44.383 3.456,-49.526" style="fill:none;stroke:#000;stroke-width:10.17px;"/><path d="M37.333,859.786c-8.474,-8.474 -20.327,-44.919 -24.187,-44.919" style="fill:none;stroke:#000;stroke-width:10.17px;"/><path d="M69.583,909.312c5.073,5.074 39.409,42.616 44.919,42.616" style="fill:none;stroke:#000;stroke-width:10.17px;"/><path d="M150.207,980.722c20.829,0 33.397,23.036 54.133,23.036" style="fill:none;stroke:#000;stroke-width:10.17px;"/><path d="M257.322,1017.58c5.977,5.977 56.437,11.711 56.437,16.125" style="fill:none;stroke:#000;stroke-width:10.17px;"/><path d="M370.196,1040.61l58.74,0" style="fill:none;stroke:#000;stroke-width:10.17px;"/><path d="M484.221,1045.22l55.286,-0" style="fill:none;stroke:#000;stroke-width:10.17px;"/><path d="M600.551,1037.16c21.867,0 41.466,-6.911 59.892,-6.911" style="fill:none;stroke:#000;stroke-width:10.17px;"/><path d="M709.969,1024.49c4.105,-4.105 45.557,-11.518 51.83,-11.518" style="fill:none;stroke:#000;stroke-width:10.17px;"/><path d="M876.317,983.387c-4.167,-0 -52.334,17.927 -53.782,17.927" style="fill:none;stroke:#000;stroke-width:10.17px;"/><path d="M930.447,967.253c19.441,-4.167 36.824,-15.414 57.588,-19.58" style="fill:none;stroke:#000;stroke-width:10.17px;"/><path d="M1037.56,928.804c4.169,-0 45.325,-21.443 48.374,-21.443" style="fill:none;stroke:#000;stroke-width:10.17px;"/><path d="M1140.07,878.566c13.178,0 45.243,-21.884 48.374,-21.884" style="fill:none;stroke:#000;stroke-width:10.17px;"/><path d="M1286.35,787.576c-4.167,6.308 -44.919,36.509 -44.919,39.16" style="fill:none;stroke:#000;stroke-width:10.17px;"/><path d="M1379.64,723.077c-10.191,8.333 -55.286,33.352 -55.286,36.856" style="fill:none;stroke:#000;stroke-width:10.17px;"/><path d="M1459.11,645.908c-11.229,11.229 -39.16,40.472 -39.16,43.767" style="fill:none;stroke:#000;stroke-width:10.17px;"/><g><path d="M1278.28,359.25l162.5,79.167l54.167,162.5l75,-70.834l175,108.334l350,-633.334l-816.667,354.167Z" style="fill:#038e8b;stroke:#000;stroke-width:10.17px;"/><path d="M1440.78,438.417l654.167,-433.334l-562.5,500l-37.5,95.834l-54.167,-162.5Z" style="fill:#06a29e;stroke:#000;stroke-width:10.17px;"/><path d="M1494.95,600.917l37.5,-95.834l37.5,25l-75,70.834Z" style="fill:none;stroke:#000;stroke-width:10.17px;"/></g></g></svg>