<?xml version="1.0" encoding="UTF-8" standalone="no"?><!DOCTYPE svg PUBLIC "-//W3C//DTD SVG 1.1//EN" "http://www.w3.org/Graphics/SVG/1.1/DTD/svg11.dtd"><svg width="100%" height="100%" viewBox="0 0 1134 280" version="1.1" xmlns="http://www.w3.org/2000/svg" xmlns:xlink="http://www.w3.org/1999/xlink" xml:space="preserve" xmlnsserif="http://www.serif.com/" style="fill-rule:evenodd;clip-rule:evenodd;stroke-linejoin:round;stroke-miterlimit:2;"><g><g><g><path d="M256.233,10.533l70.8,0l-0,155.1l94.8,0l-0,54.9l-165.6,0l-0,-210Z" style="fill:#fff;fill-rule:nonzero;"/><path d="M497.433,63.933l-0,36l87.6,0l-0,53.4l-87.6,0l-0,67.2l-70.8,0l-0,-210l170.7,0l-0,53.4l-99.9,0Z" style="fill:#fff;fill-rule:nonzero;"/><path d="M742.533,109.833l61.5,0l-0,88.8c-12.4,8.6 -26.8,15.2 -43.2,19.8c-16.4,4.6 -32.5,6.9 -48.3,6.9c-22.4,0 -42.5,-4.65 -60.3,-13.95c-17.8,-9.3 -31.75,-22.3 -41.85,-39c-10.1,-16.7 -15.15,-35.65 -15.15,-56.85c-0,-21.2 5.05,-40.15 15.15,-56.85c10.1,-16.7 24.2,-29.7 42.3,-39c18.1,-9.3 38.55,-13.95 61.35,-13.95c20.6,0 39.05,3.45 55.35,10.35c16.3,6.9 29.85,16.95 40.65,30.15l-45.3,39.9c-13.2,-15.4 -28.9,-23.1 -47.1,-23.1c-15.6,0 -28,4.7 -37.2,14.1c-9.2,9.4 -13.8,22.2 -13.8,38.4c-0,15.8 4.55,28.5 13.65,38.1c9.1,9.6 21.25,14.4 36.45,14.4c9,0 17.6,-1.7 25.8,-5.1l-0,-53.1Z" style="fill:#76ee74;fill-rule:nonzero;"/></g><rect x="810.874" y="171.167" width="47.263" height="54.167" style="fill:#fff;"/><g><path d="M991.084,129.3l0,87.6c0,20.8 -5.766,36.433 -17.3,46.9c-11.533,10.467 -27.966,15.7 -49.3,15.7c-10.933,-0 -21.133,-1.167 -30.6,-3.5c-9.466,-2.333 -17.533,-5.7 -24.2,-10.1l15.2,-30.8c4.267,3.2 9.667,5.8 16.2,7.8c6.534,2 12.8,3 18.8,3c9.067,-0 15.667,-1.933 19.8,-5.8c4.134,-3.867 6.2,-9.533 6.2,-17l0,-2c-6.8,7.733 -16.866,11.6 -30.2,11.6c-9.333,-0 -18.033,-2.167 -26.1,-6.5c-8.066,-4.333 -14.5,-10.533 -19.3,-18.6c-4.8,-8.067 -7.2,-17.3 -7.2,-27.7c0,-10.4 2.4,-19.6 7.2,-27.6c4.8,-8 11.234,-14.167 19.3,-18.5c8.067,-4.333 16.767,-6.5 26.1,-6.5c14.934,-0 25.734,4.8 32.4,14.4l0,-12.4l43,-0Zm-63.4,68.2c5.334,-0 9.767,-1.633 13.3,-4.9c3.534,-3.267 5.3,-7.5 5.3,-12.7c0,-5.2 -1.766,-9.4 -5.3,-12.6c-3.533,-3.2 -7.966,-4.8 -13.3,-4.8c-5.466,-0 -9.966,1.6 -13.5,4.8c-3.533,3.2 -5.3,7.4 -5.3,12.6c0,5.2 1.8,9.433 5.4,12.7c3.6,3.267 8.067,4.9 13.4,4.9Z" style="fill:#fff;fill-rule:nonzero;"/><path d="M1133.28,129.3l0,87.6c0,20.8 -5.766,36.433 -17.3,46.9c-11.533,10.467 -27.966,15.7 -49.3,15.7c-10.933,-0 -21.133,-1.167 -30.6,-3.5c-9.466,-2.333 -17.533,-5.7 -24.2,-10.1l15.2,-30.8c4.267,3.2 9.667,5.8 16.2,7.8c6.534,2 12.8,3 18.8,3c9.067,-0 15.667,-1.933 19.8,-5.8c4.134,-3.867 6.2,-9.533 6.2,-17l0,-2c-6.8,7.733 -16.866,11.6 -30.2,11.6c-9.333,-0 -18.033,-2.167 -26.1,-6.5c-8.066,-4.333 -14.5,-10.533 -19.3,-18.6c-4.8,-8.067 -7.2,-17.3 -7.2,-27.7c0,-10.4 2.4,-19.6 7.2,-27.6c4.8,-8 11.234,-14.167 19.3,-18.5c8.067,-4.333 16.767,-6.5 26.1,-6.5c14.934,-0 25.734,4.8 32.4,14.4l0,-12.4l43,-0Zm-63.4,68.2c5.334,-0 9.767,-1.633 13.3,-4.9c3.534,-3.267 5.3,-7.5 5.3,-12.7c0,-5.2 -1.766,-9.4 -5.3,-12.6c-3.533,-3.2 -7.966,-4.8 -13.3,-4.8c-5.466,-0 -9.966,1.6 -13.5,4.8c-3.533,3.2 -5.3,7.4 -5.3,12.6c0,5.2 1.8,9.433 5.4,12.7c3.6,3.267 8.067,4.9 13.4,4.9Z" style="fill:#fff;fill-rule:nonzero;"/></g></g><g><path d="M66.216,7.069c-40.941,20.143 -66.638,61.481 -66.211,106.509c0.617,65.022 54.773,117.303 120.861,116.676c66.088,-0.627 119.242,-53.925 118.626,-118.947c-0.427,-45.029 -26.904,-85.871 -68.219,-105.234l-12.881,26.592c30.986,14.522 50.844,45.154 51.164,78.925c0.462,48.767 -39.403,88.741 -88.969,89.211c-49.567,0.47 -90.183,-38.74 -90.646,-87.507c-0.32,-33.771 18.953,-64.774 49.658,-79.881l-13.383,-26.344Z" style="fill:#76ee74;"/><path d="M134.224,0l-29.928,0.284l0.977,102.967l29.928,-0.284l-0.977,-102.967Z" style="fill:#76ee74;"/></g></g></svg>