<?xml version="1.0" encoding="UTF-8" standalone="no"?><!DOCTYPE svg PUBLIC "-//W3C//DTD SVG 1.1//EN" "http://www.w3.org/Graphics/SVG/1.1/DTD/svg11.dtd"><svg width="100%" height="100%" viewBox="0 0 684 367" version="1.1" xmlns="http://www.w3.org/2000/svg" xmlns:xlink="http://www.w3.org/1999/xlink" xml:space="preserve" xmlns:serif="http://www.serif.com/" style="fill-rule:evenodd;clip-rule:evenodd;stroke-linejoin:round;stroke-miterlimit:2;"><g><g><path d="M128.473,74.884l22.374,0l-0,192.288l118.517,0l-0,19.35l-140.891,-0l0,-211.638Z" style="fill:#fff;fill-rule:nonzero;"/><path d="M274.758,94.234l-0,83.143l109.447,0l-0,19.35l-109.447,-0l-0,89.795l-22.373,-0l-0,-211.638l145.123,0l-0,19.35l-122.75,-0Z" style="fill:#fff;fill-rule:nonzero;"/><path d="M544.265,180.703l21.466,-0l-0,80.725c-9.877,8.667 -21.567,15.318 -35.072,19.954c-13.504,4.636 -27.714,6.954 -42.63,6.954c-21.163,-0 -40.211,-4.636 -57.142,-13.908c-16.931,-9.272 -30.234,-22.121 -39.909,-38.548c-9.674,-16.427 -14.512,-34.82 -14.512,-55.177c0,-20.358 4.838,-38.75 14.512,-55.177c9.675,-16.427 22.978,-29.277 39.909,-38.548c16.931,-9.272 36.079,-13.908 57.445,-13.908c16.125,0 30.939,2.57 44.444,7.71c13.504,5.139 24.892,12.748 34.164,22.826l-13.908,14.21c-16.729,-16.528 -37.994,-24.792 -63.793,-24.792c-17.133,0 -32.602,3.78 -46.409,11.338c-13.807,7.559 -24.641,18.04 -32.502,31.443c-7.861,13.404 -11.791,28.37 -11.791,44.898c-0,16.528 3.93,31.443 11.791,44.746c7.861,13.303 18.644,23.784 32.351,31.443c13.706,7.66 29.125,11.489 46.257,11.489c21.769,0 40.212,-5.442 55.329,-16.326l-0,-71.352Z" style="fill:#fff;fill-rule:nonzero;"/></g><path d="M0.149,0.149l-0.149,-0l0,141.666l25.298,0l-0,-116.517l116.517,-0l0,-25.298l-141.666,0l-0,0.149Z" style="fill:#76ee74;"/><path d="M391.764,178.53l0.109,20.833l170.827,-0.893l-0.109,-20.833l-170.827,0.893Z" style="fill:#fff;"/><path d="M683.333,366.667l0.149,-0l0,-141.667l-25.297,0l-0,116.518l-116.518,-0l-0,25.297l141.666,0l0,-0.148Z" style="fill:#76ee74;"/></g></svg>