<?xml version="1.0" encoding="UTF-8" standalone="no"?><!DOCTYPE svg PUBLIC "-//W3C//DTD SVG 1.1//EN" "http://www.w3.org/Graphics/SVG/1.1/DTD/svg11.dtd"><svg width="100%" height="100%" viewBox="0 0 998 274" version="1.1" xmlns="http://www.w3.org/2000/svg" xmlns:xlink="http://www.w3.org/1999/xlink" xml:space="preserve" xmlnsserif="http://www.serif.com/" style="fill-rule:evenodd;clip-rule:evenodd;stroke-linejoin:round;stroke-miterlimit:2;"><g><g><g><path d="M0,4.8l77.821,0l0,155.1l104.202,0l-0,54.9l-182.023,0l0,-210Z" style="fill:#fff;fill-rule:nonzero;"/><path d="M277.62,58.2l0,36l96.288,0l-0,53.4l-96.288,0l0,67.2l-77.821,0l-0,-210l187.628,0l0,53.4l-109.807,0Z" style="fill:#fff;fill-rule:nonzero;"/><path d="M555.361,104.1l67.599,0l-0,88.8c-13.63,8.6 -29.458,15.2 -47.485,19.8c-18.026,4.6 -35.723,6.9 -53.09,6.9c-24.621,-0 -46.714,-4.65 -66.28,-13.95c-19.565,-9.3 -34.898,-22.3 -46,-39c-11.102,-16.7 -16.652,-35.65 -16.652,-56.85c-0,-21.2 5.55,-40.15 16.652,-56.85c11.102,-16.7 26.6,-29.7 46.495,-39c19.895,-9.3 42.373,-13.95 67.434,-13.95c22.643,0 42.923,3.45 60.839,10.35c17.917,6.9 32.811,16.95 44.682,30.15l-49.793,39.9c-14.509,-15.4 -31.766,-23.1 -51.771,-23.1c-17.147,0 -30.777,4.7 -40.889,14.1c-10.112,9.4 -15.169,22.2 -15.169,38.4c0,15.8 5.002,28.5 15.004,38.1c10.003,9.6 23.357,14.4 40.065,14.4c9.892,0 19.345,-1.7 28.359,-5.1l-0,-53.1Z" style="fill:#76ee74;fill-rule:nonzero;"/></g><rect x="634.646" y="165.433" width="51.95" height="54.167" style="fill:#fff;"/><g><path d="M841.061,123.567l0,87.6c0,20.8 -6.338,36.433 -19.016,46.9c-12.677,10.466 -30.74,15.7 -54.189,15.7c-12.017,-0 -23.229,-1.167 -33.634,-3.5c-10.406,-2.334 -19.273,-5.7 -26.6,-10.1l16.707,-30.8c4.69,3.2 10.625,5.8 17.807,7.8c7.181,2 14.069,3 20.664,3c9.966,-0 17.22,-1.934 21.764,-5.8c4.543,-3.867 6.815,-9.534 6.815,-17l-0,-2c-7.475,7.733 -18.54,11.6 -33.195,11.6c-10.259,-0 -19.822,-2.167 -28.689,-6.5c-8.866,-4.334 -15.938,-10.534 -21.214,-18.6c-5.276,-8.067 -7.914,-17.3 -7.914,-27.7c0,-10.4 2.638,-19.6 7.914,-27.6c5.276,-8 12.348,-14.167 21.214,-18.5c8.867,-4.334 18.43,-6.5 28.689,-6.5c16.414,-0 28.285,4.8 35.613,14.4l-0,-12.4l47.264,-0Zm-69.687,68.2c5.862,-0 10.735,-1.634 14.619,-4.9c3.883,-3.267 5.825,-7.5 5.825,-12.7c0,-5.2 -1.942,-9.4 -5.825,-12.6c-3.884,-3.2 -8.757,-4.8 -14.619,-4.8c-6.009,-0 -10.955,1.6 -14.839,4.8c-3.884,3.2 -5.826,7.4 -5.826,12.6c0,5.2 1.979,9.433 5.936,12.7c3.957,3.266 8.866,4.9 14.729,4.9Z" style="fill:#76ee74;fill-rule:nonzero;"/><path d="M997.363,123.567l0,87.6c0,20.8 -6.338,36.433 -19.015,46.9c-12.677,10.466 -30.741,15.7 -54.19,15.7c-12.017,-0 -23.229,-1.167 -33.634,-3.5c-10.406,-2.334 -19.272,-5.7 -26.6,-10.1l16.707,-30.8c4.69,3.2 10.626,5.8 17.807,7.8c7.181,2 14.069,3 20.664,3c9.966,-0 17.221,-1.934 21.764,-5.8c4.543,-3.867 6.815,-9.534 6.815,-17l-0,-2c-7.475,7.733 -18.54,11.6 -33.195,11.6c-10.259,-0 -19.822,-2.167 -28.689,-6.5c-8.866,-4.334 -15.938,-10.534 -21.214,-18.6c-5.276,-8.067 -7.914,-17.3 -7.914,-27.7c0,-10.4 2.638,-19.6 7.914,-27.6c5.276,-8 12.348,-14.167 21.214,-18.5c8.867,-4.334 18.43,-6.5 28.689,-6.5c16.414,-0 28.285,4.8 35.613,14.4l-0,-12.4l47.264,-0Zm-69.687,68.2c5.862,-0 10.735,-1.634 14.619,-4.9c3.884,-3.267 5.825,-7.5 5.825,-12.7c0,-5.2 -1.941,-9.4 -5.825,-12.6c-3.884,-3.2 -8.757,-4.8 -14.619,-4.8c-6.009,-0 -10.955,1.6 -14.839,4.8c-3.884,3.2 -5.826,7.4 -5.826,12.6c0,5.2 1.979,9.433 5.936,12.7c3.957,3.266 8.867,4.9 14.729,4.9Z" style="fill:#76ee74;fill-rule:nonzero;"/></g></g></g></svg>